<svg viewBox="0 0 512.001 512.001"><path d="M431.175 450.958c-1.219-3.65-4.612-6.143-8.484-6.103h-.335c-57.937 0-114.093-20.686-158.144-58.253l-19.197-18.253c-42.908-45.444-66.533-104.892-66.533-167.429 0-71.262 31.052-138.768 85.196-185.209A8.931 8.931 0 0 0 257.265.02C123.247 8.983 18.264 121.3 18.264 255.721 18.264 397.034 133.23 512 274.542 512c55.868 0 108.955-17.659 153.52-51.067a8.931 8.931 0 0 0 3.113-9.975z"/><path d="M432.945 155.259a3.914 3.914 0 0 0-3.16-2.665l-34.768-5.052-15.546-31.503a3.92 3.92 0 0 0-3.511-2.183 3.911 3.911 0 0 0-3.511 2.183l-15.55 31.503-34.766 5.052a3.92 3.92 0 0 0-3.162 2.665 3.92 3.92 0 0 0 .99 4.014l25.16 24.521-5.937 34.626a3.908 3.908 0 0 0 1.557 3.829 3.91 3.91 0 0 0 4.121.297l31.098-16.347 31.094 16.347a3.92 3.92 0 0 0 4.126-.297 3.912 3.912 0 0 0 1.557-3.829l-5.937-34.626 25.155-24.521a3.91 3.91 0 0 0 .99-4.014z"/><circle cx="359.704" cy="327.305" r="25.632"/><path d="M493.737 273.623c0 9.886-8.012 17.9-17.9 17.9-9.885 0-17.898-8.014-17.898-17.9 0-9.887 8.014-17.899 17.898-17.899 9.888 0 17.9 8.013 17.9 17.899z"/></svg>